<svg width="180" height="180" viewBox="0 0 180 180" fill="none" xmlns="http://www.w3.org/2000/svg">
<rect width="180" height="180" rx="36" fill="#0EA5E9"/>
<path d="M90 45C75 45 60 55 60 70C60 80 65 85 70 90C65 95 60 100 60 110C60 125 75 135 90 135C105 135 120 125 120 110C120 100 115 95 110 90C115 85 120 80 120 70C120 55 105 45 90 45Z" fill="white"/>
<path d="M90 55C82 55 75 60 75 70C75 75 78 78 80 80C78 82 75 85 75 90C75 98 82 103 90 103C98 103 105 98 105 90C105 85 102 82 100 80C102 78 105 75 105 70C105 60 98 55 90 55Z" fill="#0EA5E9"/>
</svg>
